<svg width="33" height="32" viewBox="0 0 33 32" fill="none" xmlns="http://www.w3.org/2000/svg">
<g id="Group 42567">
<path id="Path 315118" d="M12.6641 0.209962H20.2952C21.8494 0.209831 23.3884 0.515946 24.8243 1.11083C26.2603 1.70571 27.5649 2.57768 28.6637 3.67694C29.7625 4.7762 30.6339 6.08119 31.2282 7.51735C31.8225 8.95351 32.1279 10.4927 32.1271 12.047V19.6779C32.1273 21.2318 31.8213 22.7704 31.2267 24.206C30.6322 25.6416 29.7607 26.946 28.6619 28.0447C27.5632 29.1435 26.2588 30.015 24.8232 30.6096C23.3876 31.2041 21.849 31.5101 20.2952 31.51H12.6641C11.1099 31.5107 9.57068 31.2053 8.13452 30.611C6.69836 30.0167 5.39339 29.1453 4.29413 28.0465C3.19487 26.9477 2.32291 25.6431 1.72803 24.2072C1.13315 22.7713 0.827018 21.2322 0.82715 19.6779V12.047C0.826361 10.4923 1.13198 8.95269 1.72656 7.51621C2.32115 6.07972 3.19304 4.7745 4.29236 3.67517C5.39168 2.57585 6.69688 1.70398 8.13336 1.10939C9.56985 0.514806 11.1094 0.209174 12.6641 0.209962Z" fill="#DFDAE4"/>
<path id="Line 363" d="M10.0942 9.71094L13.1312 12.4369" stroke="#131C2D" stroke-width="1.6" stroke-miterlimit="10"/>
<path id="Line 364" d="M23.7221 9.71094L20.6851 12.4369" stroke="#131C2D" stroke-width="1.6" stroke-miterlimit="10"/>
<path id="Path 315119" d="M23.332 22.481L21.074 20.924L18.738 22.481L16.48 20.924L14.2219 22.481L11.8859 20.924L9.62793 22.481" stroke="#131C2D" stroke-width="1.5" stroke-miterlimit="10"/>
<path id="Ellipse 2678" d="M23.3323 15.939C24.5363 15.939 25.5123 14.963 25.5123 13.759C25.5123 12.555 24.5363 11.579 23.3323 11.579C22.1284 11.579 21.1523 12.555 21.1523 13.759C21.1523 14.963 22.1284 15.939 23.3323 15.939Z" fill="#131C2D"/>
<path id="Ellipse 2679" d="M10.327 15.939C11.531 15.939 12.507 14.963 12.507 13.759C12.507 12.555 11.531 11.579 10.327 11.579C9.12299 11.579 8.14697 12.555 8.14697 13.759C8.14697 14.963 9.12299 15.939 10.327 15.939Z" fill="#131C2D"/>
</g>
</svg>
