<svg width="62" height="62" viewBox="0 0 62 62" fill="none" xmlns="http://www.w3.org/2000/svg">
<path d="M31 62C48.1208 62 62 48.1208 62 31C62 13.8792 48.1208 0 31 0C13.8792 0 0 13.8792 0 31C0 48.1208 13.8792 62 31 62Z" fill="url(#paint0_linear_703_2046)"/>
<path d="M32.395 21.202C32.395 20.8193 32.2429 20.4523 31.9723 20.1817C31.7017 19.9111 31.3347 19.759 30.952 19.759C30.5693 19.759 30.2022 19.9111 29.9316 20.1817C29.661 20.4523 29.509 20.8193 29.509 21.202V29.859H20.851C20.4683 29.859 20.1012 30.0111 19.8306 30.2817C19.56 30.5523 19.408 30.9193 19.408 31.302C19.408 31.6847 19.56 32.0518 19.8306 32.3224C20.1012 32.593 20.4683 32.745 20.851 32.745H29.508V41.403C29.508 41.7857 29.66 42.1528 29.9306 42.4234C30.2012 42.694 30.5683 42.846 30.951 42.846C31.3337 42.846 31.7007 42.694 31.9713 42.4234C32.2419 42.1528 32.394 41.7857 32.394 41.403V32.746H41.052C41.4347 32.746 41.8017 32.594 42.0723 32.3234C42.3429 32.0528 42.495 31.6857 42.495 31.303C42.495 30.9203 42.3429 30.5533 42.0723 30.2827C41.8017 30.0121 41.4347 29.86 41.052 29.86H32.395V21.202Z" fill="white"/>
<defs>
<linearGradient id="paint0_linear_703_2046" x1="31" y1="0" x2="31" y2="62" gradientUnits="userSpaceOnUse">
<stop stop-color="#D578FF"/>
<stop offset="0.112" stop-color="#C37DFD"/>
<stop offset="0.342" stop-color="#A687FB"/>
<stop offset="0.57" stop-color="#918FFA"/>
<stop offset="0.791" stop-color="#8493F9"/>
<stop offset="1" stop-color="#8095F9"/>
</linearGradient>
</defs>
</svg>
