<svg width="20" height="22" viewBox="0 0 20 22" fill="none" xmlns="http://www.w3.org/2000/svg">
<g id="Group 42051">
<g id="Group 41536">
<g id="Group 41534">
<path id="Path 43789" d="M9.61 17.81C9.48368 17.817 9.35733 17.7972 9.23917 17.752C9.12101 17.7068 9.0137 17.6372 8.92425 17.5478C8.8348 17.4583 8.76521 17.351 8.72002 17.2329C8.67483 17.1147 8.65506 16.9883 8.662 16.862V11.173C8.662 10.9211 8.76209 10.6794 8.94025 10.5013C9.11841 10.3231 9.36004 10.223 9.612 10.223C9.86396 10.223 10.1056 10.3231 10.2838 10.5013C10.4619 10.6794 10.562 10.9211 10.562 11.173V16.862C10.569 16.9887 10.5491 17.1154 10.5037 17.2339C10.4583 17.3523 10.3883 17.4598 10.2984 17.5493C10.2085 17.6389 10.1007 17.7084 9.98208 17.7533C9.86344 17.7982 9.73664 17.8175 9.61 17.81Z" fill="#0B1A51"/>
<path id="Path 43790" d="M12.4549 14.969H6.76592C6.51396 14.969 6.27233 14.8689 6.09417 14.6907C5.91601 14.5126 5.81592 14.2709 5.81592 14.019C5.81592 13.767 5.91601 13.5254 6.09417 13.3472C6.27233 13.1691 6.51396 13.069 6.76592 13.069H12.4549C12.7069 13.069 12.9485 13.1691 13.1267 13.3472C13.3048 13.5254 13.4049 13.767 13.4049 14.019C13.4049 14.2709 13.3048 14.5126 13.1267 14.6907C12.9485 14.8689 12.7069 14.969 12.4549 14.969Z" fill="#0B1A51"/>
</g>
<g id="Layer 2">
<path id="Path 43793" d="M1.80016e-06 8.16296V19.433C-3.39898e-07 19.7608 0.0647282 20.0855 0.190475 20.3883C0.316222 20.6911 0.500513 20.9661 0.732778 21.1976C0.965043 21.429 1.24071 21.6123 1.54397 21.7369C1.84723 21.8616 2.17212 21.9251 2.5 21.924H16.73C17.3905 21.9237 18.0238 21.6611 18.4908 21.194C18.9577 20.7269 19.22 20.0934 19.22 19.433V8.16296C19.22 7.50148 18.9578 6.86695 18.491 6.39837C18.0241 5.92979 17.3905 5.66534 16.729 5.66296H15.147C15.3653 5.43804 15.5587 5.19028 15.724 4.92396C16.0402 4.39458 16.2146 3.79258 16.2302 3.17614C16.2457 2.55969 16.1021 1.94965 15.813 1.40496C15.561 0.96673 15.1949 0.605073 14.7535 0.358527C14.3122 0.111982 13.8123 -0.0102133 13.307 0.00496137C12.7532 -0.0127157 12.2021 0.0897745 11.6916 0.305383C11.1812 0.520992 10.7235 0.844604 10.35 1.25396C10.0547 1.56684 9.80588 1.92044 9.611 2.30396C9.42815 1.92282 9.1925 1.56934 8.911 1.25396C8.53748 0.843668 8.07942 0.519264 7.5684 0.303117C7.05738 0.0869704 6.50557 -0.0157764 5.951 0.00196135C5.44483 -0.0128645 4.94406 0.109416 4.50169 0.355863C4.05932 0.602311 3.69179 0.963759 3.438 1.40196C3.14894 1.94665 3.00526 2.55669 3.02085 3.17314C3.03644 3.78958 3.21078 4.39158 3.527 4.92096C3.69227 5.18728 3.88572 5.43504 4.104 5.65996H2.5C2.17144 5.65996 1.84611 5.72472 1.5426 5.85055C1.23909 5.97637 0.963359 6.16079 0.731173 6.39325C0.498988 6.62572 0.314902 6.90167 0.189441 7.20533C0.0639811 7.50899 -0.000392469 7.8344 1.80016e-06 8.16296ZM17.742 8.16296V19.433C17.742 19.7016 17.6353 19.9593 17.4453 20.1493C17.2553 20.3392 16.9977 20.446 16.729 20.446H10.349L10.4 7.14296H16.75C17.0156 7.15026 17.2679 7.26093 17.4532 7.45143C17.6385 7.64194 17.7421 7.89722 17.742 8.16296ZM13.306 1.50996C13.5528 1.49322 13.7993 1.54601 14.0176 1.66231C14.2359 1.77862 14.4172 1.9538 14.541 2.16796C14.7029 2.4874 14.7789 2.84351 14.7613 3.20121C14.7438 3.55892 14.6334 3.90589 14.441 4.20796C14.1013 4.72227 13.626 5.13256 13.0676 5.39342C12.5091 5.65427 11.8894 5.75552 11.277 5.68596H10.346C10.2902 4.46135 10.6527 3.2542 11.374 2.26296C11.6168 1.99678 11.916 1.78823 12.2497 1.65258C12.5835 1.51694 12.9434 1.45762 13.303 1.47896L13.306 1.50996ZM4.783 4.17896C4.59061 3.87689 4.48021 3.52992 4.46268 3.17221C4.44514 2.81451 4.52108 2.4584 4.683 2.13896C4.80615 1.92608 4.9862 1.75173 5.20294 1.6355C5.41968 1.51927 5.66453 1.46575 5.91 1.48096C6.2601 1.45948 6.61068 1.51445 6.9374 1.64207C7.26412 1.76968 7.55915 1.96688 7.802 2.21996C8.51423 3.22581 8.88696 4.43266 8.866 5.66496H7.942C7.32932 5.73587 6.709 5.63435 6.15089 5.37181C5.59278 5.10927 5.11904 4.69615 4.783 4.17896ZM1.478 8.16296C1.478 8.02884 1.50445 7.89604 1.55584 7.77216C1.60722 7.64828 1.68253 7.53575 1.77746 7.441C1.87239 7.34626 1.98507 7.27117 2.10905 7.22003C2.23303 7.16889 2.36589 7.1427 2.5 7.14296H10.4L10.348 20.449H2.5C2.36596 20.4502 2.23302 20.4247 2.10888 20.3742C1.98474 20.3236 1.87187 20.2489 1.77681 20.1544C1.68175 20.0599 1.60639 19.9475 1.5551 19.8236C1.5038 19.6998 1.4776 19.567 1.478 19.433V8.16296Z" fill="#0B1A51"/>
</g>
</g>
</g>
</svg>
