<svg width="32" height="32" viewBox="0 0 32 32" fill="none" xmlns="http://www.w3.org/2000/svg">
<g id="Group 42569">
<path id="Path 315106" d="M11.9431 0.210085H19.5741C21.1284 0.209822 22.6676 0.515869 24.1036 1.11069C25.5396 1.70551 26.8444 2.57746 27.9433 3.67673C29.0422 4.776 29.9137 6.08105 30.508 7.51728C31.1024 8.9535 31.4079 10.4927 31.4071 12.0471V19.6781C31.4072 21.2319 31.1013 22.7706 30.5067 24.2061C29.9121 25.6417 29.0406 26.9461 27.9418 28.0449C26.8431 29.1436 25.5387 30.0151 24.1031 30.6097C22.6675 31.2043 21.1289 31.5102 19.5751 31.5101H11.9441C10.3898 31.5109 8.85063 31.2054 7.41447 30.6111C5.9783 30.0169 4.6733 29.1454 3.57404 28.0466C2.47478 26.9478 1.60282 25.6432 1.00794 24.2073C0.413062 22.7714 0.106931 21.2324 0.107063 19.6781V12.0471C0.0997805 10.4907 0.400948 8.94827 0.993171 7.50891C1.58539 6.06956 2.45693 4.7618 3.55744 3.6612C4.65796 2.56059 5.96564 1.68894 7.40494 1.09659C8.84425 0.504246 10.3867 0.202935 11.9431 0.210085Z" fill="url(#paint0_linear_206_2783)"/>
<path id="Path 315107" d="M25.4939 12.8251C25.285 12.3286 24.9802 11.8782 24.5968 11.4997C24.2135 11.1212 23.7592 10.8221 23.26 10.6196C22.7608 10.4171 22.2266 10.3151 21.6879 10.3195C21.1492 10.3238 20.6167 10.4345 20.1209 10.6451C19.1472 11.0736 18.3694 11.8514 17.9409 12.8251" stroke="white" stroke-width="1.5" stroke-miterlimit="10"/>
<path id="Path 315108" d="M9.68506 18.821C10.0188 19.6114 10.506 20.3278 11.1185 20.9286C11.731 21.5295 12.4565 22.0029 13.2531 22.3215C14.0498 22.6401 14.9017 22.7976 15.7596 22.7848C16.6174 22.772 17.4643 22.5893 18.251 22.247C19.0237 21.9367 19.7256 21.4732 20.3144 20.8844C20.9032 20.2956 21.3667 19.5937 21.677 18.821" stroke="white" stroke-width="1.5" stroke-miterlimit="10"/>
<path id="Path 315109" d="M13.5013 12.8251C13.2924 12.3286 12.9875 11.8782 12.6041 11.4997C12.2208 11.1212 11.7665 10.8221 11.2673 10.6196C10.7682 10.4171 10.2339 10.3151 9.69525 10.3195C9.15657 10.3238 8.62405 10.4345 8.12823 10.6451C7.15449 11.0736 6.37669 11.8514 5.94824 12.8251" stroke="white" stroke-width="1.5" stroke-miterlimit="10"/>
</g>
<defs>
<linearGradient id="paint0_linear_206_2783" x1="15.5379" y1="-4.98586" x2="15.9135" y2="30.2268" gradientUnits="userSpaceOnUse">
<stop stop-color="#00F878"/>
<stop offset="0.153" stop-color="#0CEE84"/>
<stop offset="0.435" stop-color="#2DD4A5"/>
<stop offset="0.81" stop-color="#62ABDB"/>
<stop offset="1" stop-color="#8095F9"/>
</linearGradient>
</defs>
</svg>
