<svg width="40" height="40" viewBox="0 0 40 40" fill="none" xmlns="http://www.w3.org/2000/svg">
<g id="Group 42574">
<path id="Path 315106" d="M15.1798 0.0314941H24.8276C33.0972 0.0314941 39.7916 6.72589 39.7916 14.9954V24.6432C39.7916 32.9128 33.0972 39.6072 24.8276 39.6072H15.1798C6.9103 39.6072 0.215902 32.9128 0.215902 24.6432V14.9954C0.117391 6.72589 6.9103 0.0314941 15.1798 0.0314941Z" fill="#DFDAE4"/>
<path id="Path 315107" d="M32.3091 15.9797C31.2262 13.3216 28.1743 12.1403 25.5163 13.2232C24.3349 13.7154 23.3504 14.6999 22.7598 15.9797" stroke="#131C2D" stroke-width="1.5"/>
<path id="Path 315108" d="M12.3252 23.5603C14.0972 27.7935 18.9211 29.664 23.1544 27.8919C25.1233 27.1044 26.6985 25.5292 27.486 23.5603" stroke="#131C2D" stroke-width="1.5"/>
<path id="Path 315109" d="M17.1489 15.9797C16.066 13.3216 13.0142 12.1403 10.3561 13.2232C9.17471 13.7154 8.19028 14.6999 7.59961 15.9797" stroke="#131C2D" stroke-width="1.5"/>
</g>
</svg>
