<svg width="32" height="32" viewBox="0 0 32 32" fill="none" xmlns="http://www.w3.org/2000/svg">
<g id="Group 42572">
<path id="Path 315101" d="M20.1189 31.51H12.4869C10.9327 31.5106 9.39363 31.2051 7.95758 30.6107C6.52154 30.0164 5.21666 29.145 4.11751 28.0462C3.01836 26.9474 2.14647 25.6428 1.55165 24.207C0.956835 22.7711 0.650748 21.2322 0.65088 19.678V12.046C0.650223 10.4914 0.955955 8.95191 1.5506 7.51553C2.14524 6.07916 3.01713 4.77405 4.11644 3.67484C5.21575 2.57562 6.52093 1.70384 7.95735 1.10932C9.39377 0.514792 10.9333 0.209174 12.4879 0.209962H20.1199C21.674 0.209962 23.213 0.516177 24.6488 1.11112C26.0846 1.70605 27.3891 2.57806 28.4878 3.67731C29.5865 4.77655 30.4578 6.08151 31.052 7.51761C31.6462 8.95371 31.9517 10.4928 31.9509 12.047V19.679C31.9509 21.2327 31.6448 22.7713 31.0502 24.2067C30.4556 25.6422 29.584 26.9465 28.4853 28.0451C27.3866 29.1437 26.0822 30.0152 24.6467 30.6097C23.2112 31.2042 21.6726 31.5101 20.1189 31.51Z" fill="#DFDAE4"/>
<path id="Path 315102" d="M26.0379 12.825C25.829 12.3285 25.5241 11.8781 25.1408 11.4996C24.7574 11.1211 24.3031 10.822 23.804 10.6195C23.3048 10.417 22.7705 10.315 22.2319 10.3193C21.6932 10.3237 21.1607 10.4344 20.6649 10.645C19.6911 11.0734 18.9133 11.8513 18.4849 12.825" stroke="#131C2D" stroke-width="1.5" stroke-miterlimit="10"/>
<path id="Path 315103" d="M14.0447 12.825C13.8358 12.3285 13.5309 11.8781 13.1476 11.4996C12.7643 11.1211 12.31 10.822 11.8108 10.6195C11.3116 10.417 10.7774 10.315 10.2387 10.3193C9.70003 10.3237 9.16752 10.4344 8.67171 10.645C7.69797 11.0734 6.92014 11.8513 6.4917 12.825" stroke="#131C2D" stroke-width="1.5" stroke-miterlimit="10"/>
<path id="Path 315104" d="M10.3066 18.276C10.5304 19.7055 11.2575 21.0081 12.3569 21.9488C13.4563 22.8895 14.8557 23.4065 16.3026 23.4065C17.7496 23.4065 19.1489 22.8895 20.2483 21.9488C21.3477 21.0081 22.0749 19.7055 22.2986 18.276H10.3066Z" fill="#131C2D"/>
</g>
</svg>
