<svg width="115" height="87" viewBox="0 0 115 87" fill="none" xmlns="http://www.w3.org/2000/svg">
<g id="Layer 2">
<g id="Layer 1">
<path id="Path 315566" d="M39.716 42.658C40.1374 42.627 40.5321 42.4403 40.8233 42.1341C41.1145 41.828 41.2812 41.4244 41.291 41.002L40.503 22.451C40.4293 20.6695 40.0053 18.9199 39.2552 17.3023C38.5051 15.6847 37.4436 14.2307 36.1314 13.0234C34.8192 11.8162 33.282 10.8793 31.6076 10.2663C29.9333 9.65336 28.1545 9.37631 26.373 9.451L12.406 9.912C11.2215 9.96387 10.0509 10.1879 8.93099 10.577C6.22743 11.5314 3.95616 13.4244 2.53017 15.9117C1.10418 18.399 0.618164 21.3155 1.1605 24.1308C1.70283 26.9461 3.2375 29.4733 5.48545 31.2529C7.7334 33.0325 10.5453 33.9462 13.41 33.828L20.685 33.652L23.4 33.53C25.3137 33.4403 27.2248 33.7568 29.0075 34.4586C30.7901 35.1605 32.404 36.2317 33.743 37.602L38.209 42.217C38.409 42.4022 38.649 42.5389 38.9103 42.6166C39.1716 42.6943 39.4473 42.7109 39.716 42.665V42.658Z" fill="url(#paint0_linear_206_2444)"/>
<path id="Path 315567" d="M29.5222 20.9021H13.6542C13.368 20.9021 13.0936 20.7884 12.8912 20.5861C12.6889 20.3837 12.5752 20.1093 12.5752 19.8231C12.5752 19.5369 12.6889 19.2625 12.8912 19.0601C13.0936 18.8578 13.368 18.7441 13.6542 18.7441H29.5222C29.6641 18.7423 29.8051 18.7686 29.9367 18.8217C30.0684 18.8747 30.1882 18.9534 30.2893 19.0531C30.3903 19.1528 30.4705 19.2716 30.5253 19.4026C30.58 19.5336 30.6082 19.6741 30.6082 19.8161C30.6082 20.1041 30.4938 20.3804 30.2901 20.584C30.0864 20.7877 29.8102 20.9021 29.5222 20.9021Z" fill="white"/>
<path id="Path 315568" d="M29.5222 26.2071H13.6542C13.368 26.2071 13.0936 26.0934 12.8912 25.891C12.6889 25.6887 12.5752 25.4142 12.5752 25.1281C12.5752 24.8419 12.6889 24.5675 12.8912 24.3651C13.0936 24.1628 13.368 24.0491 13.6542 24.0491H29.5222C29.8102 24.0491 30.0864 24.1635 30.2901 24.3672C30.4938 24.5708 30.6082 24.847 30.6082 25.1351C30.6082 25.277 30.58 25.4176 30.5253 25.5486C30.4705 25.6796 30.3903 25.7984 30.2893 25.8981C30.1882 25.9978 30.0684 26.0765 29.9367 26.1295C29.8051 26.1826 29.6641 26.2089 29.5222 26.2071Z" fill="white"/>
<path id="Path 315569" d="M55.7049 15.837C55.0129 15.837 54.3479 15.837 53.6149 15.905C32.9969 17.262 21.9749 41.07 33.2569 58.43L49.1109 83.12C49.8208 84.227 50.7976 85.1377 51.9515 85.7684C53.1054 86.3992 54.3993 86.7297 55.7144 86.7297C57.0294 86.7297 58.3233 86.3992 59.4772 85.7684C60.6311 85.1377 61.6079 84.227 62.3179 83.12L78.3049 58.471C89.5049 41.111 78.4679 17.357 57.8629 15.959C57.1029 15.918 56.4109 15.837 55.7049 15.837Z" fill="url(#paint1_linear_206_2444)"/>
<path id="Ellipse 2719" d="M55.7048 55.1191C62.4741 55.1191 67.9618 49.6315 67.9618 42.8621C67.9618 36.0927 62.4741 30.6051 55.7048 30.6051C48.9354 30.6051 43.4478 36.0927 43.4478 42.8621C43.4478 49.6315 48.9354 55.1191 55.7048 55.1191Z" fill="url(#paint2_linear_206_2444)"/>
<path id="Path 315570" d="M60.2121 42.9841C59.6856 42.9685 59.1837 42.7572 58.8046 42.3914C58.4256 42.0257 58.1965 41.5317 58.1621 41.0061V17.8191C58.1638 15.5939 58.6042 13.391 59.4582 11.3363C60.3121 9.28153 61.5628 7.41534 63.1387 5.84446C64.7146 4.27357 66.5848 3.02883 68.6422 2.18144C70.6997 1.33406 72.904 0.900665 75.1291 0.906056H99.1291C103.089 0.906056 106.887 2.47914 109.687 5.27924C112.487 8.07935 114.06 11.8771 114.06 15.8371C114.06 19.797 112.487 23.5948 109.687 26.3949C106.887 29.195 103.089 30.7681 99.1291 30.7681H79.9611C77.5671 30.765 75.1995 31.2691 73.0143 32.2471C70.8292 33.225 68.8759 34.6547 67.2831 36.4421L62.0171 42.4141C61.7761 42.6351 61.4896 42.8006 61.1778 42.8991C60.8659 42.9976 60.5363 43.0266 60.2121 42.9841Z" fill="url(#paint3_linear_206_2444)"/>
<path id="Path 315571" d="M100.321 12.7551H73.8529C73.7022 12.7596 73.5521 12.7338 73.4115 12.6792C73.2709 12.6246 73.1427 12.5423 73.0344 12.4373C72.9262 12.3322 72.8402 12.2065 72.7814 12.0676C72.7227 11.9287 72.6924 11.7794 72.6924 11.6286C72.6924 11.4778 72.7227 11.3285 72.7814 11.1896C72.8402 11.0506 72.9262 10.9249 73.0344 10.8199C73.1427 10.7148 73.2709 10.6326 73.4115 10.578C73.5521 10.5234 73.7022 10.4976 73.8529 10.5021H100.321C100.472 10.4976 100.622 10.5234 100.762 10.578C100.903 10.6326 101.031 10.7148 101.139 10.8199C101.248 10.9249 101.334 11.0506 101.392 11.1896C101.451 11.3285 101.482 11.4778 101.482 11.6286C101.482 11.7794 101.451 11.9287 101.392 12.0676C101.334 12.2065 101.248 12.3322 101.139 12.4373C101.031 12.5423 100.903 12.6246 100.762 12.6792C100.622 12.7338 100.472 12.7596 100.321 12.7551Z" fill="white"/>
<path id="Path 315572" d="M100.321 18.3071H73.8529C73.7022 18.3116 73.5521 18.2858 73.4115 18.2312C73.2709 18.1766 73.1427 18.0943 73.0344 17.9893C72.9262 17.8842 72.8402 17.7585 72.7814 17.6196C72.7227 17.4807 72.6924 17.3314 72.6924 17.1806C72.6924 17.0298 72.7227 16.8805 72.7814 16.7416C72.8402 16.6027 72.9262 16.4769 73.0344 16.3719C73.1427 16.2668 73.2709 16.1846 73.4115 16.13C73.5521 16.0754 73.7022 16.0496 73.8529 16.0541H100.321C100.472 16.0496 100.622 16.0754 100.762 16.13C100.903 16.1846 101.031 16.2668 101.139 16.3719C101.248 16.4769 101.334 16.6027 101.392 16.7416C101.451 16.8805 101.482 17.0298 101.482 17.1806C101.482 17.3314 101.451 17.4807 101.392 17.6196C101.334 17.7585 101.248 17.8842 101.139 17.9893C101.031 18.0943 100.903 18.1766 100.762 18.2312C100.622 18.2858 100.472 18.3116 100.321 18.3071Z" fill="white"/>
<path id="Path 315573" d="M100.321 23.7201H89.6528C89.502 23.7245 89.3519 23.6987 89.2113 23.6441C89.0707 23.5895 88.9425 23.5073 88.8342 23.4022C88.726 23.2972 88.64 23.1715 88.5812 23.0326C88.5225 22.8937 88.4922 22.7444 88.4922 22.5936C88.4922 22.4427 88.5225 22.2934 88.5812 22.1545C88.64 22.0156 88.726 21.8899 88.8342 21.7849C88.9425 21.6798 89.0707 21.5976 89.2113 21.543C89.3519 21.4884 89.502 21.4626 89.6528 21.4671H100.321C100.472 21.4626 100.622 21.4884 100.762 21.543C100.903 21.5976 101.031 21.6798 101.139 21.7849C101.248 21.8899 101.334 22.0156 101.392 22.1545C101.451 22.2934 101.481 22.4427 101.481 22.5936C101.481 22.7444 101.451 22.8937 101.392 23.0326C101.334 23.1715 101.248 23.2972 101.139 23.4022C101.031 23.5073 100.903 23.5895 100.762 23.6441C100.622 23.6987 100.472 23.7245 100.321 23.7201Z" fill="white"/>
</g>
</g>
<defs>
<linearGradient id="paint0_linear_206_2444" x1="43.0259" y1="53.3972" x2="18.5329" y2="2.91032" gradientUnits="userSpaceOnUse">
<stop stop-color="#131C2D"/>
<stop offset="0.1" stop-color="#161F33"/>
<stop offset="0.24" stop-color="#1F2943"/>
<stop offset="0.38" stop-color="#2D395D"/>
<stop offset="0.55" stop-color="#414F82"/>
<stop offset="0.72" stop-color="#5A6BB2"/>
<stop offset="0.89" stop-color="#788DEB"/>
<stop offset="0.93" stop-color="#8095F9"/>
</linearGradient>
<linearGradient id="paint1_linear_206_2444" x1="37.28" y1="90.2744" x2="85.6627" y2="18.8189" gradientUnits="userSpaceOnUse">
<stop stop-color="#D578FF"/>
<stop offset="0.22" stop-color="#D179FF"/>
<stop offset="0.44" stop-color="#C57DFE"/>
<stop offset="0.65" stop-color="#B184FC"/>
<stop offset="0.86" stop-color="#968EFB"/>
<stop offset="1" stop-color="#8095F9"/>
</linearGradient>
<linearGradient id="paint2_linear_206_2444" x1="43.3007" y1="59.2129" x2="64.873" y2="30.7767" gradientUnits="userSpaceOnUse">
<stop stop-color="#00F878"/>
<stop offset="0.24" stop-color="#03F67B"/>
<stop offset="0.41" stop-color="#0CEF84"/>
<stop offset="0.56" stop-color="#1CE394"/>
<stop offset="0.7" stop-color="#32D1AA"/>
<stop offset="0.83" stop-color="#4EBBC7"/>
<stop offset="0.95" stop-color="#71A1EA"/>
<stop offset="1" stop-color="#8095F9"/>
</linearGradient>
<linearGradient id="paint3_linear_206_2444" x1="3132.27" y1="-543.072" x2="3150.29" y2="-486.405" gradientUnits="userSpaceOnUse">
<stop stop-color="#00F878"/>
<stop offset="1" stop-color="#8095F9"/>
</linearGradient>
</defs>
</svg>
