<svg width="7" height="10" viewBox="0 0 7 10" fill="none" xmlns="http://www.w3.org/2000/svg">
<path id="Shape" d="M3.5 10C3.4343 10.0001 3.36921 9.98728 3.30847 9.96223C3.24773 9.93718 3.19252 9.9004 3.146 9.854C2.18745 8.90368 1.39452 7.7998 0.8 6.588C0.310027 5.62982 0.0369022 4.57556 0 3.5C0 2.57174 0.368749 1.6815 1.02513 1.02513C1.6815 0.368749 2.57174 0 3.5 0C4.42826 0 5.3185 0.368749 5.97487 1.02513C6.63125 1.6815 7 2.57174 7 3.5C6.96313 4.57556 6.69 5.62983 6.2 6.588C5.6054 7.8006 4.81212 8.90518 3.853 9.856C3.75897 9.94874 3.63207 10.0005 3.5 10ZM3.5 1C2.83696 1 2.20107 1.26339 1.73223 1.73223C1.26339 2.20107 1 2.83696 1 3.5C1.18123 5.50067 2.06723 7.37191 3.5 8.78C4.93277 7.37191 5.81877 5.50067 6 3.5C6 3.1717 5.93534 2.84661 5.8097 2.54329C5.68406 2.23998 5.49991 1.96438 5.26777 1.73223C5.03562 1.50009 4.76002 1.31594 4.45671 1.1903C4.15339 1.06466 3.8283 1 3.5 1ZM3.5 5C3.20333 5 2.91332 4.91203 2.66664 4.7472C2.41997 4.58238 2.22771 4.34811 2.11418 4.07403C2.00065 3.79994 1.97094 3.49834 2.02882 3.20736C2.0867 2.91639 2.22956 2.64912 2.43934 2.43934C2.64912 2.22956 2.91639 2.0867 3.20736 2.02882C3.49834 1.97094 3.79994 2.00065 4.07403 2.11418C4.34811 2.22771 4.58238 2.41997 4.7472 2.66664C4.91203 2.91332 5 3.20333 5 3.5C5 3.89782 4.84196 4.27936 4.56066 4.56066C4.27936 4.84196 3.89782 5 3.5 5ZM3.5 3C3.40111 3 3.30444 3.02932 3.22221 3.08427C3.13999 3.13921 3.0759 3.2173 3.03806 3.30866C3.00022 3.40002 2.99031 3.50055 3.00961 3.59755C3.0289 3.69454 3.07652 3.78363 3.14645 3.85355C3.21637 3.92348 3.30546 3.9711 3.40245 3.99039C3.49945 4.00969 3.59998 3.99978 3.69134 3.96194C3.7827 3.9241 3.86079 3.86001 3.91573 3.77779C3.97068 3.69556 4 3.59889 4 3.5C4 3.36739 3.94732 3.24021 3.85355 3.14645C3.75979 3.05268 3.63261 3 3.5 3Z" fill="#0B1A51" fill-opacity="0.61"/>
</svg>
