<svg width="13" height="19" viewBox="0 0 13 19" fill="none" xmlns="http://www.w3.org/2000/svg">
<path id="Icon material-location-on" d="M6.285 0.562013C5.4595 0.561487 4.64198 0.723695 3.87921 1.03936C3.11644 1.35502 2.42338 1.81795 1.83966 2.40167C1.25594 2.98539 0.793012 3.67846 0.477347 4.44123C0.161683 5.20399 -0.000524609 6.02151 1.27461e-06 6.84701C1.27461e-06 11.561 6.285 18.519 6.285 18.519C6.285 18.519 12.57 11.562 12.57 6.84701C12.5705 6.02151 12.4083 5.20399 12.0927 4.44123C11.777 3.67846 11.3141 2.98539 10.7303 2.40167C10.1466 1.81795 9.45356 1.35502 8.69079 1.03936C7.92802 0.723695 7.11051 0.561487 6.285 0.562013ZM6.285 9.09201C5.84098 9.09201 5.40693 8.96035 5.03775 8.71366C4.66856 8.46698 4.38081 8.11636 4.21089 7.70614C4.04097 7.29592 3.99652 6.84452 4.08314 6.40904C4.16976 5.97355 4.38358 5.57353 4.69755 5.25956C5.01152 4.94559 5.41154 4.73177 5.84702 4.64515C6.28251 4.55853 6.73391 4.60298 7.14413 4.7729C7.55435 4.94282 7.90497 5.23057 8.15165 5.59976C8.39833 5.96895 8.53 6.40299 8.53 6.84701C8.52974 7.44234 8.29313 8.01321 7.87216 8.43418C7.4512 8.85514 6.88033 9.09175 6.285 9.09201Z" fill="url(#paint0_linear_206_1716)"/>
<defs>
<linearGradient id="paint0_linear_206_1716" x1="6.285" y1="0.562012" x2="6.285" y2="18.519" gradientUnits="userSpaceOnUse">
<stop stop-color="#00F878"/>
<stop offset="0.153" stop-color="#0CEE84"/>
<stop offset="0.431" stop-color="#2CD5A5"/>
<stop offset="0.801" stop-color="#61ACD9"/>
<stop offset="1" stop-color="#8095F9"/>
</linearGradient>
</defs>
</svg>
