<svg width="32" height="32" viewBox="0 0 32 32" fill="none" xmlns="http://www.w3.org/2000/svg">
<g id="Group 42570">
<path id="Path 315105" d="M19.8162 31.51H12.1852C10.6309 31.5108 9.09171 31.2053 7.65555 30.611C6.21939 30.0168 4.91442 29.1453 3.81516 28.0465C2.7159 26.9477 1.8439 25.6431 1.24902 24.2072C0.654145 22.7713 0.348014 21.2322 0.348146 19.678V12.047C0.347357 10.4923 0.653005 8.95269 1.24759 7.51621C1.84218 6.07972 2.71406 4.77453 3.81339 3.6752C4.91271 2.57588 6.2179 1.70399 7.65439 1.10941C9.09088 0.514821 10.6305 0.209174 12.1852 0.209962H19.8162C21.3704 0.209831 22.9095 0.515962 24.3454 1.11084C25.7813 1.70572 27.0859 2.57771 28.1847 3.67697C29.2835 4.77623 30.1549 6.0812 30.7492 7.51737C31.3435 8.95353 31.649 10.4927 31.6482 12.047V19.678C31.6483 21.2318 31.3423 22.7704 30.7478 24.206C30.1532 25.6416 29.2817 26.946 28.1829 28.0447C27.0842 29.1435 25.7798 30.015 24.3442 30.6096C22.9086 31.2042 21.37 31.5101 19.8162 31.51Z" fill="#DFDAE4"/>
<path id="Line 362" d="M21.062 21.625H10.939" stroke="#131C2D" stroke-width="1.5" stroke-miterlimit="10"/>
<path id="Ellipse 2676" d="M10.9383 14.538C12.1423 14.538 13.1183 13.562 13.1183 12.358C13.1183 11.154 12.1423 10.178 10.9383 10.178C9.73432 10.178 8.7583 11.154 8.7583 12.358C8.7583 13.562 9.73432 14.538 10.9383 14.538Z" fill="#131C2D"/>
<path id="Ellipse 2677" d="M21.0623 14.538C22.2663 14.538 23.2423 13.562 23.2423 12.358C23.2423 11.154 22.2663 10.178 21.0623 10.178C19.8583 10.178 18.8823 11.154 18.8823 12.358C18.8823 13.562 19.8583 14.538 21.0623 14.538Z" fill="#131C2D"/>
</g>
</svg>
