
<svg width="124" height="91" viewBox="0 0 124 91" fill="none" xmlns="http://www.w3.org/2000/svg">
<path d="M10.342 20.9381H86.908C89.6509 20.9381 92.2814 22.0277 94.2209 23.9672C96.1604 25.9067 97.25 28.5372 97.25 31.2801V75.3661C97.25 79.5099 95.6039 83.4839 92.6738 86.4139C89.7438 89.344 85.7697 90.9901 81.626 90.9901H15.626C13.5741 90.9904 11.5422 90.5864 9.64634 89.8014C7.75052 89.0163 6.02791 87.8655 4.57687 86.4147C3.12584 84.9638 1.9748 83.2413 1.1895 81.3456C0.404193 79.4499 -1.68117e-08 77.4181 0 75.3661L0 31.2801C0 28.5372 1.0896 25.9067 3.0291 23.9672C4.9686 22.0277 7.59913 20.9381 10.342 20.9381Z" fill="url(#paint0_linear_206_2433)"/>
<path d="M86.8471 20.932H10.4051C4.77177 20.932 0.205078 25.4987 0.205078 31.132V37.495C0.205078 43.1283 4.77177 47.695 10.4051 47.695H86.8471C92.4804 47.695 97.0471 43.1283 97.0471 37.495V31.132C97.0471 25.4987 92.4804 20.932 86.8471 20.932Z" fill="url(#paint1_linear_206_2433)"/>
<path d="M83.3938 31.538C83.0035 31.5276 82.6314 31.3707 82.3515 31.0985C82.0716 30.8264 81.9043 30.4589 81.8828 30.069V30.055L81.8958 12.911C81.897 11.2649 82.2225 9.63523 82.8538 8.115C83.4851 6.59478 84.4098 5.21387 85.575 4.05116C86.7402 2.88845 88.1231 1.96672 89.6447 1.3387C91.1663 0.710678 92.7967 0.388639 94.4428 0.391004L112.214 0.404005C113.306 0.403161 114.393 0.564272 115.438 0.882032C117.702 1.5757 119.683 2.97732 121.091 4.88087C122.499 6.78442 123.258 9.08946 123.259 11.457C123.256 14.388 122.09 17.1979 120.016 19.269C117.942 21.3401 115.131 22.5026 112.2 22.5011L100.6 22.4931H98.0758H98.0158C96.2443 22.492 94.4925 22.8656 92.8756 23.5895C91.2586 24.3133 89.8131 25.371 88.6339 26.693L84.6968 31.1261C84.5207 31.2823 84.3137 31.3998 84.0892 31.4708C83.8647 31.5418 83.6277 31.5647 83.3938 31.538Z" fill="url(#paint2_linear_206_2433)"/>
<path d="M111.68 9.6731H94.6798C94.5366 9.67296 94.3947 9.64461 94.2624 9.58966C94.1301 9.53471 94.0099 9.45425 93.9087 9.35284C93.8075 9.25144 93.7272 9.13113 93.6725 8.99872C93.6178 8.8663 93.5897 8.72439 93.5898 8.58112C93.5898 8.29203 93.7047 8.01478 93.9091 7.81036C94.1135 7.60595 94.3908 7.49109 94.6798 7.49109H111.68C111.969 7.49109 112.246 7.60595 112.451 7.81036C112.655 8.01478 112.77 8.29203 112.77 8.58112C112.77 8.72439 112.742 8.8663 112.687 8.99872C112.632 9.13113 112.552 9.25144 112.451 9.35284C112.35 9.45425 112.23 9.53471 112.097 9.58966C111.965 9.64461 111.823 9.67296 111.68 9.6731Z" fill="white"/>
<path d="M111.68 15.0391H94.6798C94.5366 15.0389 94.3947 15.0106 94.2624 14.9556C94.1301 14.9007 94.0099 14.8202 93.9087 14.7188C93.8075 14.6174 93.7272 14.497 93.6725 14.3646C93.6178 14.2322 93.5897 14.0903 93.5898 13.947C93.5898 13.6579 93.7047 13.3807 93.9091 13.1763C94.1135 12.9719 94.3908 12.8571 94.6798 12.8571H111.68C111.969 12.8571 112.246 12.9719 112.451 13.1763C112.655 13.3807 112.77 13.6579 112.77 13.947C112.77 14.0903 112.742 14.2322 112.687 14.3646C112.632 14.497 112.552 14.6174 112.451 14.7188C112.35 14.8202 112.23 14.9007 112.097 14.9556C111.965 15.0106 111.823 15.0389 111.68 15.0391Z" fill="white"/>
<path d="M41.4359 57.837L47.7358 54.6281C48.0112 54.4877 48.3158 54.4144 48.6249 54.4144C48.9339 54.4144 49.2385 54.4877 49.5139 54.6281L55.8138 57.837C56.1124 57.9892 56.445 58.0621 56.7798 58.049C57.1146 58.0358 57.4404 57.9369 57.7261 57.7618C58.0117 57.5867 58.2477 57.3413 58.4114 57.049C58.575 56.7566 58.661 56.4271 58.6609 56.092V20.932H38.5879V56.092C38.588 56.4271 38.674 56.7566 38.8378 57.0489C39.0016 57.3412 39.2377 57.5867 39.5234 57.7617C39.8091 57.9368 40.135 58.0356 40.4698 58.0488C40.8046 58.062 41.1373 57.9891 41.4359 57.837Z" fill="url(#paint3_linear_206_2433)"/>
<path d="M76.422 79.1871C79.4385 79.1871 81.884 76.7416 81.884 73.7251C81.884 70.7085 79.4385 68.2631 76.422 68.2631C73.4054 68.2631 70.96 70.7085 70.96 73.7251C70.96 76.7416 73.4054 79.1871 76.422 79.1871Z" fill="white"/>
<defs>
<linearGradient id="paint0_linear_206_2433" x1="33.065" y1="11.8314" x2="53.4172" y2="115.864" gradientUnits="userSpaceOnUse">
<stop stop-color="#D578FF"/>
<stop offset="0.334" stop-color="#D278FE"/>
<stop offset="0.526" stop-color="#CA7BFE"/>
<stop offset="0.682" stop-color="#BC80FD"/>
<stop offset="0.819" stop-color="#A887FB"/>
<stop offset="0.941" stop-color="#8F8FFA"/>
<stop offset="1" stop-color="#8095F9"/>
</linearGradient>
<linearGradient id="paint1_linear_206_2433" x1="24.125" y1="21.9222" x2="25.6414" y2="74.791" gradientUnits="userSpaceOnUse">
<stop stop-color="#00F878"/>
<stop offset="0.239" stop-color="#02F57A"/>
<stop offset="0.41" stop-color="#0CEE84"/>
<stop offset="0.562" stop-color="#1BE293"/>
<stop offset="0.7" stop-color="#31D1AA"/>
<stop offset="0.831" stop-color="#4EBBC7"/>
<stop offset="0.954" stop-color="#70A0E9"/>
<stop offset="1" stop-color="#8095F9"/>
</linearGradient>
<linearGradient id="paint2_linear_206_2433" x1="2765.82" y1="-776.56" x2="2779.18" y2="-734.608" gradientUnits="userSpaceOnUse">
<stop stop-color="#D578FF"/>
<stop offset="0.219" stop-color="#D179FE"/>
<stop offset="0.436" stop-color="#C57DFD"/>
<stop offset="0.65" stop-color="#B184FC"/>
<stop offset="0.863" stop-color="#958DFA"/>
<stop offset="1" stop-color="#8095F9"/>
</linearGradient>
<linearGradient id="paint3_linear_206_2433" x1="41.2175" y1="-0.188394" x2="68.2302" y2="41.2058" gradientUnits="userSpaceOnUse">
<stop stop-color="#D578FF"/>
<stop offset="0.219" stop-color="#D179FE"/>
<stop offset="0.436" stop-color="#C57DFD"/>
<stop offset="0.65" stop-color="#B184FC"/>
<stop offset="0.863" stop-color="#958DFA"/>
<stop offset="1" stop-color="#8095F9"/>
</linearGradient>
</defs>
</svg>
