<svg width="40" height="40" viewBox="0 0 40 40" fill="none" xmlns="http://www.w3.org/2000/svg">
<g id="Group 42826">
<path id="Rectangle 6525" opacity="0.5" d="M29.2275 0H10.7725C4.82303 0 0 4.81905 0 10.7636V29.2364C0 35.181 4.82303 40 10.7725 40H29.2275C35.177 40 40 35.181 40 29.2364V10.7636C40 4.81905 35.177 0 29.2275 0Z" fill="url(#paint0_linear_681_1493)"/>
<g id="Group 42766">
<path id="Path 315101" d="M23.7833 35.5061H16.2171C14.6757 35.5068 13.1493 35.204 11.7251 34.615C10.3009 34.0259 9.00691 33.1622 7.91699 32.0732C6.82707 30.9842 5.96263 29.6912 5.37309 28.2682C4.78356 26.8452 4.48049 25.32 4.4812 23.7799V16.22C4.48049 14.6799 4.78356 13.1548 5.37309 11.7317C5.96263 10.3087 6.82707 9.01577 7.91699 7.92675C9.00691 6.83773 10.3009 5.97399 11.7251 5.38494C13.1493 4.7959 14.6757 4.49307 16.2171 4.49378H23.7833C25.3247 4.49307 26.8511 4.7959 28.2753 5.38494C29.6995 5.97399 30.9935 6.83773 32.0834 7.92675C33.1733 9.01577 34.0378 10.3087 34.6273 11.7317C35.2168 13.1548 35.5199 14.6799 35.5192 16.22V23.7799C35.5199 25.32 35.2168 26.8452 34.6273 28.2682C34.0378 29.6912 33.1733 30.9842 32.0834 32.0732C30.9935 33.1622 29.6995 34.0259 28.2753 34.615C26.8511 35.204 25.3247 35.5068 23.7833 35.5061Z" fill="url(#paint1_linear_681_1493)"/>
<path id="Path 315102" d="M29.6511 16.9913C29.4441 16.4993 29.1419 16.0529 28.7618 15.6778C28.3817 15.3028 27.9312 15.0064 27.4362 14.8057C26.9412 14.605 26.4115 14.5039 25.8773 14.5082C25.3431 14.5125 24.815 14.6222 24.3233 14.8309C23.3575 15.2554 22.586 16.0263 22.1611 16.9913" stroke="white" stroke-width="1.5" stroke-miterlimit="10"/>
<path id="Path 315103" d="M17.7607 16.9913C17.5537 16.4993 17.2515 16.0529 16.8714 15.6778C16.4913 15.3028 16.0408 15.0064 15.5458 14.8057C15.0509 14.605 14.5211 14.5039 13.9869 14.5082C13.4527 14.5125 12.9246 14.6222 12.433 14.8309C11.4671 15.2554 10.6956 16.0263 10.2708 16.9913" stroke="white" stroke-width="1.5" stroke-miterlimit="10"/>
<path id="Path 315104" d="M14.0549 22.3916C14.2762 23.8084 14.9969 25.0995 16.0871 26.032C17.1773 26.9645 18.5651 27.4769 20.0002 27.4769C21.4353 27.4769 22.8232 26.9645 23.9133 26.032C25.0035 25.0995 25.7243 23.8084 25.9455 22.3916H14.0549Z" fill="white"/>
</g>
</g>
<defs>
<linearGradient id="paint0_linear_681_1493" x1="19.72" y1="-6.64" x2="20.2" y2="38.36" gradientUnits="userSpaceOnUse">
<stop stop-color="#00F878"/>
<stop offset="0.153" stop-color="#0CEE84"/>
<stop offset="0.435" stop-color="#2DD4A5"/>
<stop offset="0.81" stop-color="#62ABDB"/>
<stop offset="1" stop-color="#8095F9"/>
</linearGradient>
<linearGradient id="paint1_linear_681_1493" x1="19.7829" y1="-0.654279" x2="20.1548" y2="34.2346" gradientUnits="userSpaceOnUse">
<stop stop-color="#00F878"/>
<stop offset="0.153" stop-color="#0CEE84"/>
<stop offset="0.435" stop-color="#2DD4A5"/>
<stop offset="0.81" stop-color="#62ABDB"/>
<stop offset="1" stop-color="#8095F9"/>
</linearGradient>
</defs>
</svg>
