<svg width="32" height="32" viewBox="0 0 32 32" fill="none" xmlns="http://www.w3.org/2000/svg">
<g id="Group 42571">
<path id="Path 315110" d="M12.4229 0.209962H20.0549C21.6092 0.20983 23.1482 0.515961 24.5841 1.11084C26.02 1.70572 27.3246 2.57771 28.4234 3.67697C29.5222 4.77623 30.3937 6.0812 30.9879 7.51737C31.5822 8.95353 31.8877 10.4927 31.8869 12.047V19.678C31.8871 21.2318 31.5811 22.7704 30.9865 24.206C30.392 25.6416 29.5204 26.946 28.4217 28.0447C27.3229 29.1435 26.0186 30.015 24.583 30.6096C23.1474 31.2042 21.6087 31.5101 20.0549 31.51H12.4229C10.8687 31.5106 9.32966 31.2051 7.89362 30.6107C6.45757 30.0164 5.15268 29.145 4.05353 28.0462C2.95438 26.9474 2.08249 25.6428 1.48767 24.207C0.892855 22.7711 0.586784 21.2322 0.586916 19.678V12.047C0.586127 10.4924 0.891715 8.95287 1.48624 7.51645C2.08076 6.08003 2.95254 4.77485 4.05176 3.67554C5.15098 2.57623 6.45609 1.70433 7.89246 1.10968C9.32883 0.515037 10.8683 0.209305 12.4229 0.209962Z" fill="#DFDAE4"/>
<path id="Path 315111" d="M6.50488 10.333C6.71378 10.8296 7.01863 11.28 7.40198 11.6584C7.78532 12.0369 8.2396 12.336 8.73877 12.5385C9.23794 12.7411 9.77217 12.8431 10.3109 12.8387C10.8495 12.8343 11.3821 12.7236 11.8779 12.513C12.8516 12.0846 13.6294 11.3067 14.0579 10.333" stroke="#131C2D" stroke-width="1.5" stroke-miterlimit="10"/>
<path id="Path 315112" d="M22.2347 22.7929C21.9009 22.0025 21.4137 21.2861 20.8012 20.6853C20.1888 20.0844 19.4632 19.611 18.6666 19.2924C17.8699 18.9738 17.018 18.8163 16.1602 18.8291C15.3023 18.8419 14.4555 19.0247 13.6687 19.3669C12.896 19.6772 12.1941 20.1407 11.6053 20.7295C11.0166 21.3183 10.553 22.0202 10.2427 22.7929" stroke="#131C2D" stroke-width="1.5" stroke-miterlimit="10"/>
<path id="Path 315113" d="M18.498 10.333C18.7069 10.8296 19.0118 11.28 19.3951 11.6584C19.7785 12.0369 20.2328 12.336 20.732 12.5385C21.2312 12.7411 21.7654 12.8431 22.3041 12.8387C22.8428 12.8343 23.3753 12.7236 23.8711 12.513C24.8448 12.0846 25.6226 11.3067 26.0511 10.333" stroke="#131C2D" stroke-width="1.5" stroke-miterlimit="10"/>
</g>
</svg>
