<svg width="26" height="17" viewBox="0 0 26 17" fill="none" xmlns="http://www.w3.org/2000/svg">
<path id="Shape" d="M9.86284 14.08C9.99526 14.2057 10.1012 14.3567 10.1743 14.5241C10.2474 14.6914 10.2863 14.8717 10.2887 15.0543C10.291 15.2369 10.2568 15.4181 10.188 15.5873C10.1192 15.7565 10.0173 15.9101 9.88813 16.0393C9.75899 16.1684 9.60532 16.2704 9.43615 16.3392C9.26698 16.408 9.08576 16.4422 8.90315 16.4398C8.72055 16.4375 8.54027 16.3986 8.37293 16.3254C8.2056 16.2523 8.0546 16.1464 7.92884 16.014L1.08884 9.17499C0.96176 9.04795 0.860949 8.89712 0.792169 8.73112C0.723389 8.56511 0.687988 8.38718 0.687988 8.20749C0.687988 8.0278 0.723389 7.84987 0.792169 7.68386C0.860949 7.51786 0.96176 7.36703 1.08884 7.23999L7.92884 0.399989C8.1865 0.148676 8.53282 0.00902979 8.89274 0.0113192C9.25265 0.0136086 9.59717 0.157649 9.85161 0.41222C10.106 0.66679 10.2499 1.01138 10.252 1.3713C10.2541 1.73122 10.1143 2.07746 9.86284 2.33499L5.36284 6.83499H24.0188C24.3689 6.85392 24.6983 7.00631 24.9394 7.26078C25.1805 7.51525 25.3148 7.85245 25.3148 8.20299C25.3148 8.55352 25.1805 8.89073 24.9394 9.1452C24.6983 9.39967 24.3689 9.55205 24.0188 9.57099H5.35884L9.86284 14.08Z" fill="#0B1A51"/>
</svg>
