<svg width="283" height="399" viewBox="0 0 283 399" fill="none" xmlns="http://www.w3.org/2000/svg">
<path d="M219.617 207.402H84.413C57.8446 207.402 36.3066 228.933 36.3066 255.494V350.907C36.3066 377.467 57.8446 398.999 84.413 398.999H219.617C246.186 398.999 267.724 377.467 267.724 350.907V255.494C267.724 228.933 246.186 207.402 219.617 207.402Z" fill="url(#paint0_linear_506_1218)"/>
<path d="M63.8307 191.597L199.035 191.597C225.604 191.597 247.142 170.066 247.142 143.505L247.142 48.0922C247.142 21.5316 225.604 4.57764e-05 199.035 4.57764e-05L63.8307 4.57764e-05C37.2624 4.57764e-05 15.7244 21.5316 15.7244 48.0922L15.7244 143.505C15.7244 170.066 37.2624 191.597 63.8307 191.597Z" fill="url(#paint1_linear_506_1218)"/>
<mask id="mask0_506_1218" style="mask-type:luminance" maskUnits="userSpaceOnUse" x="0" y="131" width="155" height="180">
<path d="M37.1069 251.468C37.1639 252.468 37.028 253.58 37.0698 254.429C37.149 256.04 37.295 257.645 37.5078 259.245C37.9226 262.379 38.5924 265.475 39.5107 268.5C41.3083 274.413 44.0322 280.003 47.581 285.062C54.6818 295.165 64.775 302.786 76.4379 306.85C82.601 308.972 89.0747 310.054 95.5932 310.051C103.288 310.051 110.908 308.535 118.017 305.591C125.126 302.647 131.585 298.332 137.026 292.893C142.467 287.453 146.783 280.995 149.728 273.888C152.673 266.781 154.188 259.164 154.188 251.471C154.18 239.191 150.321 227.222 143.154 217.249C139.582 212.296 135.261 207.929 130.348 204.303C129.582 203.739 127.374 202.889 127.343 201.778C127.332 201.278 128.193 200.239 128.419 199.762C130.911 194.538 131.213 188.459 130.144 182.833C128.883 176.201 125.844 170.047 122.597 164.121C117.245 154.363 110.893 144.624 101.373 138.856C90.9282 132.525 78.1082 131.818 65.8945 131.814C56.7373 131.814 47.3986 132.136 38.7763 135.222C26.9682 139.445 17.353 148.675 11.1164 159.552C4.87987 170.428 1.79575 182.877 0.446583 195.34C-0.0987838 200.374 -0.361974 205.536 0.96154 210.419C2.23565 215.11 4.90263 219.28 7.53065 223.368C11.352 229.307 15.3805 235.232 20.4599 240.18C22.8957 242.611 25.6548 244.694 28.6594 246.373C30.1391 247.18 31.691 247.848 33.295 248.367C34.4997 248.755 36.2489 248.777 36.8228 250.082C36.9985 250.523 37.0947 250.992 37.1069 251.468Z" fill="white"/>
</mask>
<g mask="url(#mask0_506_1218)">
<path d="M95.5922 310.053C127.954 310.053 154.189 283.826 154.189 251.473C154.189 219.121 127.954 192.894 95.5922 192.894C63.2302 192.894 36.9956 219.121 36.9956 251.473C36.9956 283.826 63.2302 310.053 95.5922 310.053Z" fill="#D578FF"/>
<path d="M135.237 267.604C133.902 264.31 132.254 261.152 130.317 258.171C129.143 256.379 127.838 254.675 126.413 253.074C121.393 247.274 114.801 243.052 107.434 240.916C105.629 240.428 103.785 240.102 101.923 239.942C100.445 239.965 98.9759 239.709 97.5922 239.19C96.6212 238.659 95.8313 237.849 95.3243 236.866C93.1719 233.096 91.6778 228.988 90.9062 224.717L73.9941 223.877C73.8557 227.124 73.2618 230.336 72.2298 233.419C71.6977 234.682 70.3162 238.123 68.9252 238.65C68.3447 238.87 63.3481 239.053 61.6968 239.484C58.2451 240.401 54.9275 241.763 51.8279 243.536C45.5169 247.22 40.032 252.163 35.7149 258.057C32.7639 262.004 30.2895 266.286 28.3429 270.813C21.2304 287.349 20.3353 305.791 19.541 323.773C22.7505 324.127 26.0142 324.701 29.2427 324.818C31.1847 324.886 32.9301 324.137 34.8436 323.999C38.0597 323.918 41.2778 324.007 44.4844 324.266C47.7946 324.38 51.1277 324.39 54.4322 324.61C56.9814 324.61 59.5448 324.787 62.092 324.877L70.1167 325.154L78.1414 325.432L82.1528 325.572C83.2747 325.534 84.3979 325.574 85.5143 325.691C86.4422 325.918 87.398 326.011 88.3523 325.966C89.3457 325.851 90.3274 325.651 91.2863 325.367C101.045 322.689 110.222 318.283 119.6 314.483C121.919 313.423 124.382 312.712 126.909 312.372C129.754 312.116 132.61 312.752 135.469 312.657C137.107 312.718 138.708 312.16 139.953 311.094C141.283 309.749 141.495 307.685 141.63 305.794L141.889 302.135C142.036 301.033 142.085 299.921 142.035 298.81C141.906 298.174 141.731 297.548 141.509 296.938C141.3 295.908 141.173 294.864 141.129 293.814C140.702 289.254 140.014 284.723 139.069 280.242C138.163 275.926 136.881 271.697 135.237 267.604Z" fill="url(#paint2_linear_506_1218)"/>
<path d="M108.016 198.313C108.503 234.952 67.1297 239.778 64.0399 207.526C57.601 167.567 107.721 153.296 108.016 198.313Z" fill="url(#paint3_linear_506_1218)"/>
<path d="M112.86 188.658C114.347 160.637 87.2064 154.856 80.5167 160.068C96.4862 147.616 68.645 142.238 62.0673 148.361C58.3343 152.255 57.7101 162.85 61.4915 167.473C50.7267 176.866 48.0103 193.548 45.9163 207.227C45.6445 220.407 66.0284 230.144 76.5861 234.563C77.8013 222.953 78.244 210.478 80.1423 199.293C85.6559 200.278 112.517 195.18 112.86 188.658Z" fill="url(#paint4_linear_506_1218)"/>
<path d="M112.86 188.658C114.347 160.637 87.2064 154.856 80.5167 160.068C96.4862 147.616 68.645 142.238 62.0673 148.361C58.3343 152.255 57.7101 162.85 61.4915 167.473C50.7267 176.866 48.0103 193.548 45.9163 207.227C45.6445 220.407 66.0284 230.144 76.5861 234.563C77.8013 222.953 78.244 210.478 80.1423 199.293C85.6559 200.278 112.517 195.18 112.86 188.658Z" fill="url(#paint5_linear_506_1218)"/>
<path d="M97.6131 235.996C97.3203 235.592 96.9584 235.242 96.5443 234.964C96.0217 234.729 95.4494 234.626 94.8777 234.664L70.1937 234.308C67.3264 237.094 63.7911 239.098 59.9268 240.125C62.2127 243.387 64.8094 246.567 68.2716 248.535C71.1879 250.039 74.3597 250.985 77.6236 251.324C81.0994 251.902 84.6384 251.998 88.1404 251.609C92.2842 251.029 96.226 249.455 99.6293 247.021C101.329 245.815 102.878 244.409 104.243 242.833C104.765 242.231 105.905 241.201 105.982 240.375C106.093 239.221 104.614 239.338 103.884 239.257C101.46 238.99 99.2232 237.827 97.6131 235.996Z" fill="url(#paint6_linear_506_1218)"/>
<path d="M84.3019 245.524C67.634 245.132 70.3105 240.319 61.3528 237.361C22.7961 244.588 17.2673 292.486 18.741 325.182C41.6711 327.569 71.0269 330.68 99.0458 326.151C121.923 322.455 146.457 308.543 144.803 327.316C151.501 251.519 105.367 238.648 105.367 238.648C105.367 238.648 99.6948 245.887 84.3019 245.524Z" fill="url(#paint7_linear_506_1218)"/>
<path d="M84.3019 245.524C67.634 245.132 70.3105 240.319 61.3528 237.361C22.7961 244.588 17.2673 292.486 18.741 325.182C41.6711 327.569 71.0269 330.68 99.0458 326.151C121.923 322.455 146.457 308.543 144.803 327.316C151.501 251.519 105.367 238.648 105.367 238.648C105.367 238.648 99.6948 245.887 84.3019 245.524Z" fill="url(#paint8_linear_506_1218)"/>
<path d="M94.0692 219.832C93.5145 220.473 92.8377 220.997 92.0784 221.374C91.319 221.751 90.4923 221.973 89.6462 222.027C88.8002 222.082 87.9518 221.967 87.1504 221.691C86.3491 221.414 85.6108 220.981 84.9785 220.416" stroke="#131C2D" stroke-width="1.056" stroke-linecap="round" stroke-linejoin="round"/>
<path d="M102.086 210.875C112.211 217.252 114.703 194.386 106.886 191.08C97.3195 188.309 97.0943 206.316 102.086 210.875Z" stroke="white" stroke-width="0.75" stroke-miterlimit="10"/>
<path d="M81.9397 212.499C93.5596 219.503 98.6779 196.326 88.0528 192.704C77.1825 189.136 74.8841 207.625 81.9397 212.499Z" stroke="white" stroke-width="0.846" stroke-miterlimit="10"/>
<path d="M93.75 203.102C94.4333 202.416 95.3573 202.024 96.3254 202.008C97.2936 201.992 98.2297 202.355 98.9348 203.018" stroke="white" stroke-width="0.75" stroke-miterlimit="10"/>
</g>
<mask id="mask1_506_1218" style="mask-type:luminance" maskUnits="userSpaceOnUse" x="180" y="87" width="103" height="104">
<path d="M231.604 190.54C259.989 190.54 282.999 167.536 282.999 139.16C282.999 110.783 259.989 87.7792 231.604 87.7792C203.219 87.7792 180.208 110.783 180.208 139.16C180.208 167.536 203.219 190.54 231.604 190.54Z" fill="white"/>
</mask>
<g mask="url(#mask1_506_1218)">
<path d="M231.604 190.54C259.989 190.54 282.999 167.536 282.999 139.16C282.999 110.783 259.989 87.7792 231.604 87.7792C203.219 87.7792 180.208 110.783 180.208 139.16C180.208 167.536 203.219 190.54 231.604 190.54Z" fill="#8095F9"/>
<path d="M271.91 189.068C270.821 186.382 269.478 183.805 267.9 181.374C266.942 179.912 265.878 178.523 264.716 177.218C260.623 172.491 255.249 169.05 249.243 167.309C247.773 166.912 246.27 166.647 244.753 166.515C243.548 166.534 242.35 166.326 241.222 165.902C240.431 165.469 239.787 164.81 239.374 164.008C237.619 160.935 236.401 157.586 235.772 154.104L221.747 155.538C221.714 157.484 221.307 159.405 220.547 161.197C220.114 162.227 218.988 165.034 217.854 165.463C217.378 165.642 213.305 165.791 211.963 166.144C209.149 166.89 206.445 168.001 203.918 169.446C198.773 172.45 194.3 176.48 190.78 181.286C188.375 184.504 186.358 187.995 184.771 191.686C178.976 205.168 178.242 220.204 177.594 234.863C180.211 235.148 182.873 235.623 185.503 235.713C187.088 235.768 188.511 235.157 190.07 235.048C192.692 234.983 195.316 235.056 197.931 235.266C200.629 235.361 203.346 235.369 206.043 235.551C208.121 235.551 210.21 235.695 212.286 235.768L218.828 235.994L225.371 236.22L228.642 236.334C229.557 236.302 230.473 236.334 231.383 236.429C232.14 236.615 232.919 236.691 233.698 236.654C234.507 236.56 235.307 236.397 236.089 236.166C244.044 233.981 251.528 230.391 259.177 227.293C261.067 226.429 263.075 225.848 265.135 225.57C267.456 225.362 269.791 225.884 272.114 225.802C273.449 225.852 274.755 225.398 275.771 224.53C276.859 223.431 277.03 221.748 277.137 220.207L277.349 217.224C277.47 216.327 277.509 215.42 277.468 214.516C277.363 213.997 277.22 213.486 277.04 212.988C276.868 212.148 276.764 211.296 276.729 210.44C276.38 206.723 275.818 203.028 275.048 199.375C274.306 195.854 273.255 192.405 271.91 189.068Z" fill="url(#paint9_linear_506_1218)"/>
<path d="M244.335 136.11C244.673 161.765 215.942 165.144 213.795 142.563C209.325 114.585 244.13 104.592 244.335 136.11Z" fill="url(#paint10_linear_506_1218)"/>
<path d="M242.27 133.633C242.536 134.706 242.537 135.827 242.275 136.901C241.255 142.327 240.735 147.834 240.72 153.355C240.627 155.169 240.968 156.979 241.717 158.634C242.373 159.8 243.335 160.765 244.499 161.425C247.438 163.152 251.055 162.447 254.191 161.111C259.676 158.774 259.66 147.624 259.891 145.859C260.828 138.79 261.398 131.553 260.081 124.494C255.735 101.23 227.545 97.8655 215.956 108.471C208.43 115.358 202.661 123.356 200.935 133.312C199.704 140.402 199.87 147.654 200.041 154.851C200.088 156.811 200.186 158.92 201.386 160.47C202.3 161.554 203.553 162.298 204.942 162.583C207.988 163.323 210.237 162.631 213.292 161.918C224.123 159.403 215.494 142.725 215.538 138.494C215.56 136.309 215.247 133.682 215.748 131.554C216.348 128.997 220.154 128.654 222.034 127.304C223.184 126.464 224.132 125.377 224.806 124.122C225.48 122.868 225.864 121.478 225.929 120.056C226.474 122.874 227.526 125.57 229.033 128.012C229.776 129.142 230.773 130.082 231.944 130.757C233.952 131.799 236.174 132.36 238.436 132.397C239.212 132.326 239.993 132.324 240.77 132.39C241.11 132.439 241.431 132.581 241.695 132.8C241.96 133.019 242.159 133.307 242.27 133.633Z" fill="url(#paint11_linear_506_1218)"/>
<path d="M241.237 163.298C240.998 162.968 240.702 162.683 240.364 162.455C239.938 162.263 239.471 162.179 239.004 162.21L218.88 161.92C216.543 164.192 213.66 165.826 210.509 166.663C212.374 169.323 214.49 171.915 217.313 173.519C219.69 174.746 222.276 175.517 224.937 175.793C227.771 176.265 230.656 176.342 233.512 176.023C236.89 175.55 240.104 174.267 242.879 172.282C244.264 171.298 245.527 170.153 246.64 168.87C247.067 168.377 247.995 167.54 248.059 166.865C248.148 165.923 246.942 166.019 246.349 165.954C244.373 165.736 242.55 164.789 241.237 163.298Z" fill="url(#paint12_linear_506_1218)"/>
<path d="M230.387 171.067C216.8 170.747 218.98 166.822 211.678 164.412C180.243 170.301 175.731 209.354 176.937 236.011C195.632 237.957 219.565 240.492 242.41 236.801C261.061 233.787 281.068 222.445 279.715 237.751C285.176 175.952 247.563 165.46 247.563 165.46C247.563 165.46 242.934 171.362 230.387 171.067Z" fill="url(#paint13_linear_506_1218)"/>
<path d="M202.094 228.279C201.921 228.279 201.755 228.213 201.629 228.095C201.503 227.978 201.426 227.817 201.413 227.645C200.444 214.603 201.708 201.492 205.151 188.876C205.173 188.789 205.213 188.707 205.268 188.635C205.323 188.563 205.391 188.503 205.47 188.458C205.548 188.413 205.635 188.385 205.724 188.374C205.814 188.363 205.905 188.37 205.991 188.394C206.166 188.444 206.313 188.56 206.402 188.717C206.491 188.874 206.514 189.061 206.467 189.235C203.066 201.702 201.817 214.658 202.774 227.545C202.781 227.634 202.77 227.724 202.742 227.81C202.713 227.895 202.669 227.974 202.61 228.042C202.551 228.11 202.479 228.165 202.399 228.206C202.319 228.246 202.231 228.27 202.142 228.276L202.094 228.279Z" fill="url(#paint14_linear_506_1218)"/>
<path d="M231.811 150.814C231.359 151.337 230.807 151.764 230.188 152.071C229.569 152.378 228.895 152.559 228.205 152.603C227.515 152.648 226.823 152.554 226.17 152.329C225.517 152.103 224.915 151.75 224.4 151.289" stroke="#131C2D" stroke-width="0.861" stroke-linecap="round" stroke-linejoin="round"/>
</g>
<path d="M142.768 235.72C143.407 236.888 144.459 237.777 145.718 238.211C146.977 238.645 148.353 238.595 149.577 238.069C151.415 237.202 152.746 235.259 154.757 234.967C157.157 234.619 159.108 236.742 160.715 238.557C162.323 240.372 164.733 242.219 166.942 241.217C169.084 240.249 169.527 237.178 171.587 236.044C173.431 235.029 175.749 236.004 177.409 237.299C179.069 238.593 180.554 240.262 182.58 240.839C185.118 241.562 187.75 240.39 190.296 239.699C199.558 237.182 209.524 241.058 218.948 239.246" stroke="white" stroke-width="0.6" stroke-miterlimit="10"/>
<path d="M164.84 254.447C164.985 256.177 167.347 256.749 169.003 256.227C170.659 255.705 172.176 254.568 173.912 254.607C175.85 254.65 177.403 256.126 178.986 257.241C180.569 258.355 182.861 259.134 184.337 257.878C184.968 257.339 185.344 256.49 186.099 256.143C187.014 255.722 188.063 256.208 189.003 256.572C197.978 260.048 208.108 252.181 217.387 254.746" stroke="white" stroke-width="0.6" stroke-miterlimit="10"/>
<path d="M167.967 121.52C167.536 122.35 166.929 123.077 166.188 123.648C165.447 124.22 164.591 124.623 163.678 124.83C162.766 125.037 161.819 125.043 160.904 124.847C159.989 124.65 159.128 124.257 158.381 123.694C157.364 122.83 156.638 121.644 155.543 120.882C151.352 117.968 145.647 122.933 140.682 121.737C138.015 121.096 135.915 118.723 133.183 118.507C131.899 118.492 130.624 118.71 129.418 119.15C116.955 122.775 103.873 123.757 91.0078 122.036" stroke="white" stroke-width="0.6" stroke-miterlimit="10"/>
<path d="M165.514 136.757C166.038 138.709 162.785 139.401 161.102 138.276C159.418 137.152 157.923 135.223 155.914 135.455C154.123 135.663 153.011 137.535 151.354 138.244C148.776 139.348 146.022 137.399 143.368 136.493C136.394 134.119 128.608 139.125 121.515 137.128" stroke="white" stroke-width="0.6" stroke-miterlimit="10"/>
<path d="M183.678 118.494C184.739 118.47 185.772 118.842 186.573 119.538C187.375 120.234 187.888 121.203 188.013 122.257C188.057 123.316 187.683 124.35 186.972 125.137C186.262 125.923 185.271 126.4 184.213 126.464C183.689 126.449 183.173 126.328 182.698 126.108C182.223 125.887 181.797 125.572 181.448 125.181C181.099 124.791 180.833 124.333 180.666 123.837C180.5 123.34 180.436 122.815 180.48 122.292C180.557 121.7 180.795 121.141 181.168 120.675C181.541 120.208 182.034 119.853 182.595 119.646C183.163 119.462 183.776 119.471 184.338 119.671C184.9 119.872 185.381 120.253 185.703 120.756C185.659 121.006 185.553 121.242 185.397 121.443C185.241 121.644 185.037 121.803 184.805 121.908C184.573 122.012 184.319 122.059 184.065 122.043C183.811 122.027 183.564 121.95 183.347 121.818C184.159 122.274 184.818 122.96 185.242 123.789C185.335 123.998 185.383 124.224 185.383 124.452C185.384 124.68 185.336 124.906 185.244 125.115C185.152 125.324 185.017 125.511 184.848 125.665C184.679 125.819 184.48 125.935 184.263 126.007" stroke="white" stroke-width="1.5" stroke-miterlimit="10"/>
<defs>
<linearGradient id="paint0_linear_506_1218" x1="173.537" y1="184.027" x2="155.487" y2="329.496" gradientUnits="userSpaceOnUse">
<stop stop-color="#00F878"/>
<stop offset="1" stop-color="#8095F9" stop-opacity="0"/>
</linearGradient>
<linearGradient id="paint1_linear_506_1218" x1="-68.5114" y1="135.651" x2="-50.6235" y2="-9.80107" gradientUnits="userSpaceOnUse">
<stop stop-color="#8095F9"/>
<stop offset="1" stop-color="#8095F9" stop-opacity="0"/>
</linearGradient>
<linearGradient id="paint2_linear_506_1218" x1="69.7713" y1="207.336" x2="71.7329" y2="234.353" gradientUnits="userSpaceOnUse">
<stop stop-color="#F8CAFF"/>
<stop offset="1" stop-color="#E9B1FC"/>
</linearGradient>
<linearGradient id="paint3_linear_506_1218" x1="92.6946" y1="227.967" x2="71.0072" y2="176.774" gradientUnits="userSpaceOnUse">
<stop stop-color="#F8CAFF"/>
<stop offset="1" stop-color="#E9B1FC"/>
</linearGradient>
<linearGradient id="paint4_linear_506_1218" x1="61.8607" y1="144.583" x2="123.236" y2="245.348" gradientUnits="userSpaceOnUse">
<stop stop-color="#131C2D"/>
<stop offset="0.314" stop-color="#141D2F"/>
<stop offset="0.455" stop-color="#182136"/>
<stop offset="0.561" stop-color="#1E2943"/>
<stop offset="0.65" stop-color="#283355"/>
<stop offset="0.728" stop-color="#34416C"/>
<stop offset="0.799" stop-color="#445289"/>
<stop offset="0.863" stop-color="#5667AB"/>
<stop offset="0.922" stop-color="#6B7ED2"/>
<stop offset="0.97" stop-color="#8095F9"/>
<stop offset="1" stop-color="#8095F9"/>
</linearGradient>
<linearGradient id="paint5_linear_506_1218" x1="34.1877" y1="182.297" x2="114.44" y2="191.129" gradientUnits="userSpaceOnUse">
<stop offset="0.165" stop-color="#D578FF"/>
<stop offset="0.173" stop-color="#D578FF" stop-opacity="0.929"/>
<stop offset="0.197" stop-color="#D578FF" stop-opacity="0.737"/>
<stop offset="0.223" stop-color="#D578FF" stop-opacity="0.561"/>
<stop offset="0.251" stop-color="#D578FF" stop-opacity="0.412"/>
<stop offset="0.28" stop-color="#D578FF" stop-opacity="0.282"/>
<stop offset="0.311" stop-color="#D578FF" stop-opacity="0.18"/>
<stop offset="0.345" stop-color="#D578FF" stop-opacity="0.098"/>
<stop offset="0.384" stop-color="#D578FF" stop-opacity="0.043"/>
<stop offset="0.43" stop-color="#D578FF" stop-opacity="0.012"/>
<stop offset="0.507" stop-color="#D578FF" stop-opacity="0"/>
</linearGradient>
<linearGradient id="paint6_linear_506_1218" x1="83.6942" y1="235.395" x2="83.3059" y2="253.418" gradientUnits="userSpaceOnUse">
<stop stop-color="#00F878"/>
<stop offset="1" stop-color="#8095F9"/>
</linearGradient>
<linearGradient id="paint7_linear_506_1218" x1="92.5353" y1="367.639" x2="79.6706" y2="236.559" gradientUnits="userSpaceOnUse">
<stop offset="0.093" stop-color="#131C2D"/>
<stop offset="0.141" stop-color="#1F2943"/>
<stop offset="0.253" stop-color="#384573"/>
<stop offset="0.369" stop-color="#4E5E9C"/>
<stop offset="0.487" stop-color="#6072BE"/>
<stop offset="0.607" stop-color="#6E81D7"/>
<stop offset="0.73" stop-color="#788CEA"/>
<stop offset="0.858" stop-color="#7E92F5"/>
<stop offset="1" stop-color="#8095F9"/>
</linearGradient>
<linearGradient id="paint8_linear_506_1218" x1="28.1793" y1="229.8" x2="56.5842" y2="303.227" gradientUnits="userSpaceOnUse">
<stop offset="0.19" stop-color="#00F878"/>
<stop offset="0.554" stop-color="#00F878" stop-opacity="0"/>
</linearGradient>
<linearGradient id="paint9_linear_506_1218" x1="239.526" y1="148.737" x2="238.29" y2="159.698" gradientUnits="userSpaceOnUse">
<stop stop-color="#F8CAFF"/>
<stop offset="1" stop-color="#E9B1FC"/>
</linearGradient>
<linearGradient id="paint10_linear_506_1218" x1="234.221" y1="157.53" x2="216.071" y2="117.964" gradientUnits="userSpaceOnUse">
<stop stop-color="#F8CAFF"/>
<stop offset="1" stop-color="#E9B1FC"/>
</linearGradient>
<linearGradient id="paint11_linear_506_1218" x1="214.242" y1="94.0575" x2="238.909" y2="168.321" gradientUnits="userSpaceOnUse">
<stop stop-color="#131C2D"/>
<stop offset="0.314" stop-color="#141D2F"/>
<stop offset="0.455" stop-color="#182136"/>
<stop offset="0.561" stop-color="#1E2943"/>
<stop offset="0.65" stop-color="#283355"/>
<stop offset="0.728" stop-color="#34416C"/>
<stop offset="0.799" stop-color="#445289"/>
<stop offset="0.863" stop-color="#5667AB"/>
<stop offset="0.922" stop-color="#6B7ED2"/>
<stop offset="0.97" stop-color="#8095F9"/>
<stop offset="1" stop-color="#8095F9"/>
</linearGradient>
<linearGradient id="paint12_linear_506_1218" x1="229.887" y1="162.806" x2="229.571" y2="177.5" gradientUnits="userSpaceOnUse">
<stop stop-color="#00F878"/>
<stop offset="1" stop-color="#8095F9"/>
</linearGradient>
<linearGradient id="paint13_linear_506_1218" x1="221.267" y1="161.515" x2="226.079" y2="245.999" gradientUnits="userSpaceOnUse">
<stop stop-color="#00F878"/>
<stop offset="1" stop-color="#8095F9"/>
</linearGradient>
<linearGradient id="paint14_linear_506_1218" x1="204.177" y1="196.191" x2="188.311" y2="200.83" gradientUnits="userSpaceOnUse">
<stop stop-color="#00F878"/>
<stop offset="1" stop-color="#8095F9"/>
</linearGradient>
</defs>
</svg>
