<svg width="321" height="499" viewBox="0 0 321 499" fill="none" xmlns="http://www.w3.org/2000/svg">
<g opacity="0.1">
<mask id="mask0_527_1216" style="mask-type:luminance" maskUnits="userSpaceOnUse" x="0" y="0" width="321" height="499">
<path d="M0 0.00708008V67.6901C0.566 67.6801 1.13401 67.675 1.70001 67.675C23.1356 67.6901 43.9999 74.588 61.2202 87.3531C78.4404 100.118 91.1065 118.076 97.353 138.581L127.921 238.989L134.581 260.853L134.737 261.376C139.41 276.717 147.279 290.896 157.825 302.978C168.371 315.06 181.356 324.772 195.925 331.476L244.742 353.866C244.783 353.884 244.824 353.902 244.865 353.922C247.239 355.107 249.209 356.967 250.529 359.268C251.849 361.569 252.46 364.209 252.285 366.856L252.191 368.734C252.098 371.471 251.173 374.114 249.539 376.312C247.906 378.509 245.641 380.157 243.047 381.034L242.906 381.077L94.468 426.328C78.7135 431.145 62.0971 432.463 45.7801 430.191C29.4631 427.919 13.8391 422.111 0 413.173V488.128C36.7323 501.476 76.8099 502.51 114.182 491.076L262.639 445.821L263.286 445.621C295.353 435.603 318.079 406.065 319.786 372.136L319.886 370.256C320.777 354.209 316.864 338.261 308.646 324.45C300.427 310.638 288.278 299.591 273.749 292.72L273.276 292.499L273.13 292.43L272.964 292.353L224.221 269.999C218.359 267.298 213.131 263.392 208.877 258.537C204.623 253.681 201.44 247.985 199.533 241.818L199.433 241.495L199.379 241.316L199.325 241.138L192.665 219.273L162.101 118.873C151.605 84.0547 129.988 53.6357 100.558 32.2731C71.8162 11.395 37.2273 0.102783 1.703 0C1.137 0 0.570324 0.0033431 0.00299072 0.0100098" fill="white"/>
</mask>
<g mask="url(#mask0_527_1216)">
<path d="M321.54 0H0V498.954H321.54V0Z" fill="url(#paint0_linear_527_1216)"/>
</g>
</g>
<defs>
<linearGradient id="paint0_linear_527_1216" x1="-1447.57" y1="-714.003" x2="-1445.97" y2="-714.003" gradientUnits="userSpaceOnUse">
<stop stop-color="#D578FF"/>
<stop offset="0.348" stop-color="#D578FF"/>
<stop offset="0.49" stop-color="#C87CFE"/>
<stop offset="0.75" stop-color="#A687FB"/>
<stop offset="1" stop-color="#8095F9"/>
</linearGradient>
</defs>
</svg>
