<svg width="18" height="20" viewBox="0 0 18 20" fill="none" xmlns="http://www.w3.org/2000/svg">
<path d="M3.87402 19.193C3.32903 18.6701 2.84311 18.089 2.42502 17.46C1.77223 16.5237 1.25637 15.499 0.893019 14.417C0.479441 13.2519 0.262154 12.0263 0.250019 10.79C0.216944 9.57709 0.517908 8.37843 1.12002 7.325C1.55806 6.56427 2.18536 5.92974 2.94102 5.483C3.68596 5.03724 4.53595 4.79739 5.40402 4.788C6.0578 4.8275 6.70019 4.97728 7.30402 5.231C7.7861 5.44372 8.29363 5.59329 8.81402 5.676C9.38848 5.55659 9.94984 5.38108 10.49 5.152C11.2125 4.86022 11.9883 4.72393 12.767 4.752C13.509 4.77134 14.2365 4.96127 14.8932 5.30706C15.5499 5.65285 16.1182 6.14522 16.554 6.746C15.8628 7.11323 15.2875 7.66587 14.8929 8.34188C14.4983 9.01789 14.2999 9.7905 14.32 10.573C14.3122 11.1713 14.4317 11.7645 14.6707 12.3131C14.9096 12.8617 15.2626 13.3532 15.706 13.755C16.1083 14.14 16.5777 14.4481 17.091 14.664C16.9797 14.986 16.862 15.295 16.738 15.591C16.446 16.2702 16.0855 16.9179 15.662 17.524C15.2641 18.1318 14.7995 18.6933 14.277 19.198C13.8025 19.6726 13.1675 19.9523 12.497 19.982C11.9291 19.9572 11.3711 19.8241 10.853 19.59C10.2939 19.3464 9.69275 19.2137 9.08302 19.199C8.45653 19.2111 7.83825 19.3438 7.26202 19.59C6.76579 19.8129 6.23585 19.9515 5.69402 20H5.61302C4.95117 19.9646 4.32839 19.6755 3.87402 19.193ZM8.69502 4.727C8.68025 4.60086 8.67257 4.474 8.67202 4.347C8.70689 3.2957 9.1186 2.29198 9.83202 1.519C10.2288 1.0739 10.711 0.713089 11.25 0.458C11.7515 0.198596 12.3001 0.042833 12.863 0C12.8779 0.132808 12.8853 0.266357 12.885 0.4C12.8722 1.43534 12.4829 2.43062 11.79 3.2C11.4549 3.6494 11.0253 4.01984 10.5315 4.28523C10.0377 4.55062 9.49173 4.70449 8.93202 4.736C8.85335 4.736 8.77435 4.733 8.69502 4.727Z" fill="#0B1A51"/>
</svg>
