<svg width="374" height="812" viewBox="0 0 374 812" fill="none" xmlns="http://www.w3.org/2000/svg">
<g clip-path="url(#clip0_29_1970)">
<path d="M375 0H0V812H375V0Z" fill="url(#paint0_linear_29_1970)"/>
<path opacity="0.13" d="M152 6.10352e-05L181.211 95.8911C190.19 125.699 208.693 151.742 233.886 170.031C251.854 183.175 272.637 191.953 294.587 195.667C316.537 199.382 339.051 197.932 360.343 191.431L375.002 186.961V130.901L344.723 140.131C333.424 143.582 321.556 144.77 309.797 143.628C298.038 142.486 286.62 139.035 276.197 133.474C265.773 127.913 256.549 120.35 249.053 111.22C241.556 102.089 235.934 91.5687 232.509 80.262L208.06 -0.00195312L152 6.10352e-05ZM373.757 6.10352e-05L375 4.08307V6.10352e-05H373.757Z" fill="url(#paint1_linear_29_1970)"/>
<g opacity="0.1">
<mask id="mask0_29_1970" style="mask-type:luminance" maskUnits="userSpaceOnUse" x="0" y="268" width="321" height="500">
<path d="M0 268.056V335.739C0.566 335.729 1.13401 335.724 1.70001 335.724C23.1356 335.739 43.9999 342.637 61.2202 355.402C78.4404 368.167 91.1065 386.125 97.353 406.63L127.921 507.038L134.581 528.902L134.737 529.425C139.41 544.766 147.279 558.944 157.825 571.027C168.371 583.109 181.356 592.821 195.925 599.525L244.742 621.915C244.783 621.933 244.824 621.951 244.865 621.971C247.239 623.156 249.209 625.016 250.529 627.317C251.849 629.618 252.46 632.258 252.285 634.905L252.191 636.783C252.098 639.52 251.173 642.163 249.539 644.361C247.906 646.558 245.641 648.206 243.047 649.083L242.906 649.126L94.468 694.377C78.7135 699.194 62.0971 700.512 45.7801 698.24C29.4631 695.968 13.8391 690.16 0 681.222V756.177C36.7323 769.525 76.8099 770.559 114.182 759.125L262.639 713.87L263.286 713.67C295.353 703.652 318.079 674.114 319.786 640.185L319.886 638.305C320.777 622.258 316.864 606.31 308.646 592.499C300.427 578.687 288.278 567.64 273.749 560.769L273.276 560.548L273.13 560.479L272.964 560.402L224.221 538.048C218.359 535.346 213.131 531.441 208.877 526.586C204.623 521.73 201.44 516.034 199.533 509.867L199.433 509.544L199.379 509.365L199.325 509.187L192.665 487.322L162.101 386.922C151.605 352.104 129.988 321.685 100.558 300.322C71.8162 279.444 37.2273 268.152 1.703 268.049C1.137 268.049 0.570324 268.052 0.00299072 268.059" fill="white"/>
</mask>
<g mask="url(#mask0_29_1970)">
<path d="M321.54 268.045H0V766.999H321.54V268.045Z" fill="url(#paint2_linear_29_1970)"/>
</g>
</g>
</g>
<defs>
<linearGradient id="paint0_linear_29_1970" x1="309" y1="-601.692" x2="90.9456" y2="924.83" gradientUnits="userSpaceOnUse">
<stop stop-color="#131C2D"/>
<stop offset="0.314" stop-color="#141D2F"/>
<stop offset="0.455" stop-color="#182136"/>
<stop offset="0.561" stop-color="#1E2943"/>
<stop offset="0.65" stop-color="#283355"/>
<stop offset="0.728" stop-color="#34416C"/>
<stop offset="0.799" stop-color="#445289"/>
<stop offset="0.863" stop-color="#5667AB"/>
<stop offset="0.922" stop-color="#6B7ED2"/>
<stop offset="0.97" stop-color="#8095F9"/>
<stop offset="1" stop-color="#8095F9"/>
</linearGradient>
<linearGradient id="paint1_linear_29_1970" x1="152" y1="98.8372" x2="375.002" y2="98.8372" gradientUnits="userSpaceOnUse">
<stop stop-color="#D578FF"/>
<stop offset="0.348" stop-color="#D578FF"/>
<stop offset="0.49" stop-color="#C87CFE"/>
<stop offset="0.75" stop-color="#A687FB"/>
<stop offset="1" stop-color="#8095F9"/>
</linearGradient>
<linearGradient id="paint2_linear_29_1970" x1="-1447.57" y1="-445.958" x2="-1445.97" y2="-445.958" gradientUnits="userSpaceOnUse">
<stop stop-color="#D578FF"/>
<stop offset="0.348" stop-color="#D578FF"/>
<stop offset="0.49" stop-color="#C87CFE"/>
<stop offset="0.75" stop-color="#A687FB"/>
<stop offset="1" stop-color="#8095F9"/>
</linearGradient>
<clipPath id="clip0_29_1970">
<rect width="375" height="812" fill="white"/>
</clipPath>
</defs>
</svg>
