<svg width="21" height="21" viewBox="0 0 21 21" fill="none" xmlns="http://www.w3.org/2000/svg">
<path d="M14.5328 5.96103C13.5013 4.97582 12.123 4.43687 10.6968 4.46103C9.74878 4.47979 8.81849 4.72126 7.98104 5.16592C7.14359 5.61059 6.42247 6.24599 5.87592 7.0208C5.32937 7.79561 4.97271 8.6881 4.83476 9.62619C4.69681 10.5643 4.78142 11.5217 5.08178 12.421C5.37742 13.2927 5.86736 14.0858 6.51456 14.7402C7.16177 15.3947 7.9493 15.8935 8.81761 16.1989C9.68593 16.5042 10.6123 16.6082 11.5267 16.5029C12.4411 16.3976 13.3196 16.0858 14.0958 15.591C14.6168 15.2452 15.0625 14.7976 15.4061 14.2752C15.7498 13.7528 15.9844 13.1663 16.0958 12.551H10.6968V8.70003H20.1288C20.2451 9.3704 20.303 10.0496 20.3018 10.73C20.3477 12.0954 20.1063 13.4551 19.5933 14.7213C19.0803 15.9874 18.3071 17.1317 17.3238 18.08V18.09C15.5 19.7041 13.1314 20.5655 10.6968 20.5C8.04461 20.5 5.50107 19.4465 3.62571 17.5711C1.75035 15.6957 0.696777 13.1522 0.696777 10.5C0.696777 7.84786 1.75035 5.30432 3.62571 3.42896C5.50107 1.55359 8.04461 0.500026 10.6968 0.500026C13.1794 0.468844 15.5776 1.40073 17.3878 3.10003L14.5328 5.96103Z" fill="#0B1A51"/>
</svg>
