<svg width="82" height="73" viewBox="0 0 82 73" fill="none" xmlns="http://www.w3.org/2000/svg">
<path d="M80.7642 43.7479L68.7553 12.195L67.8963 9.93898C67.2589 8.10429 66.2664 6.41306 64.9754 4.96193C63.6845 3.51081 62.1203 2.32816 60.3723 1.48153C58.6243 0.634888 56.7266 0.140862 54.7877 0.0276074C52.8487 -0.0856473 50.9064 0.184121 49.0717 0.821492C47.237 1.45886 45.5459 2.45137 44.0947 3.74233C42.6436 5.03329 41.461 6.5974 40.6143 8.34542C39.7677 10.0934 39.2736 11.9911 39.1604 13.9301C39.0471 15.869 39.3169 17.8113 39.9542 19.646L46.2492 35.9459L51.2492 48.909C51.8644 50.6843 52.1788 52.55 52.1793 54.429C52.0914 54.1446 51.9431 53.8826 51.7447 53.6608C51.5462 53.439 51.3022 53.2627 51.0293 53.1439L43.8112 49.8339C41.6569 48.8426 39.7369 47.4064 38.1774 45.6198C36.6179 43.8331 35.4543 41.7366 34.7633 39.468L34.7412 39.392L33.7562 36.158L29.2362 21.312C28.0928 17.5592 25.5053 14.4143 22.0431 12.5692C18.5809 10.7242 14.5276 10.33 10.7747 11.4735C7.02193 12.617 3.87708 15.2044 2.03201 18.6666C0.18693 22.1288 -0.207238 26.1821 0.936243 29.935L7.86624 52.689C9.16233 56.9469 12.0966 60.5157 16.0237 62.6104C19.9508 64.7051 24.5491 65.1542 28.8073 63.859L50.7542 57.169C51.0551 57.0844 51.3329 56.9327 51.5666 56.7252C51.8003 56.5177 51.9837 56.2598 52.1032 55.971C51.8911 58.3061 51.1885 60.5701 50.0413 62.6149L46.1563 69.5449C45.9434 69.9269 45.8513 70.3645 45.8925 70.7999C45.9336 71.2352 46.1059 71.6479 46.3866 71.9832C46.6673 72.3185 47.0432 72.5607 47.4645 72.6778C47.8858 72.7949 48.3328 72.7814 48.7462 72.639L70.4223 65.103C72.504 64.3801 74.4229 63.2541 76.0694 61.7894C77.7159 60.3247 79.0576 58.5499 80.018 56.5665C80.9784 54.5831 81.5387 52.43 81.6667 50.23C81.7947 48.03 81.4881 45.8264 80.7642 43.745" fill="white"/>
</svg>
